<svg width="35" height="35" viewBox="0 0 35 35" fill="none" xmlns="http://www.w3.org/2000/svg">
<path d="M14.5834 18.9584C15.2097 19.7957 16.0087 20.4885 16.9263 20.9898C17.8438 21.4911 18.8585 21.7892 19.9014 21.8639C20.9443 21.9386 21.9911 21.7881 22.9708 21.4227C23.9504 21.0573 24.84 20.4854 25.5792 19.7459L29.9542 15.3709C31.2825 13.9957 32.0174 12.1538 32.0008 10.242C31.9842 8.33013 31.2173 6.50129 29.8654 5.14935C28.5135 3.79742 26.6846 3.03056 24.7728 3.01395C22.8609 2.99733 21.019 3.73229 19.6438 5.06053L17.1355 7.55428M20.4167 16.0418C19.7904 15.2045 18.9914 14.5117 18.0738 14.0104C17.1563 13.5091 16.1416 13.211 15.0987 13.1363C14.0558 13.0616 13.009 13.2121 12.0293 13.5775C11.0497 13.943 10.1601 14.5148 9.42088 15.2543L5.04588 19.6293C3.71764 21.0045 2.98269 22.8464 2.9993 24.7582C3.01591 26.6701 3.78277 28.4989 5.1347 29.8509C6.48664 31.2028 8.31548 31.9697 10.2273 31.9863C12.1392 32.0029 13.9811 31.2679 15.3563 29.9397L17.85 27.4459" stroke="#3E3BFF" stroke-width="4" stroke-linecap="round" stroke-linejoin="round"/>
</svg>
