<svg width="35" height="35" viewBox="0 0 35 35" fill="none" xmlns="http://www.w3.org/2000/svg">
<g clip-path="url(#clip0_39_430)">
<path d="M17.5002 21.875C19.9164 21.875 21.8752 19.9163 21.8752 17.5C21.8752 15.0838 19.9164 13.125 17.5002 13.125C15.0839 13.125 13.1252 15.0838 13.1252 17.5C13.1252 19.9163 15.0839 21.875 17.5002 21.875Z" stroke="#0D0D0D" stroke-width="2.5" stroke-linecap="round" stroke-linejoin="round"/>
<path d="M28.2918 21.875C28.0977 22.3149 28.0398 22.8028 28.1256 23.2759C28.2114 23.749 28.4369 24.1855 28.7731 24.5292L28.8606 24.6167C29.1318 24.8876 29.3469 25.2093 29.4937 25.5633C29.6405 25.9174 29.716 26.297 29.716 26.6803C29.716 27.0635 29.6405 27.4431 29.4937 27.7972C29.3469 28.1512 29.1318 28.4729 28.8606 28.7438C28.5897 29.015 28.268 29.2301 27.9139 29.3769C27.5599 29.5237 27.1803 29.5992 26.797 29.5992C26.4137 29.5992 26.0342 29.5237 25.6801 29.3769C25.3261 29.2301 25.0044 29.015 24.7335 28.7438L24.646 28.6563C24.3023 28.3201 23.8658 28.0946 23.3927 28.0088C22.9196 27.923 22.4317 27.9809 21.9918 28.175C21.5605 28.3599 21.1926 28.6669 20.9335 29.0581C20.6744 29.4494 20.5354 29.9079 20.5335 30.3771V30.625C20.5335 31.3986 20.2262 32.1405 19.6792 32.6874C19.1322 33.2344 18.3904 33.5417 17.6168 33.5417C16.8433 33.5417 16.1014 33.2344 15.5544 32.6874C15.0075 32.1405 14.7002 31.3986 14.7002 30.625V30.4938C14.6889 30.0111 14.5326 29.543 14.2517 29.1502C13.9709 28.7575 13.5783 28.4584 13.1252 28.2917C12.6853 28.0976 12.1974 28.0397 11.7243 28.1255C11.2512 28.2112 10.8147 28.4368 10.471 28.773L10.3835 28.8605C10.1126 29.1316 9.79094 29.3468 9.43686 29.4936C9.08279 29.6403 8.70325 29.7159 8.31996 29.7159C7.93666 29.7159 7.55712 29.6403 7.20305 29.4936C6.84897 29.3468 6.52729 29.1316 6.25641 28.8605C5.98523 28.5896 5.7701 28.2679 5.62332 27.9138C5.47654 27.5597 5.40099 27.1802 5.40099 26.7969C5.40099 26.4136 5.47654 26.0341 5.62332 25.68C5.7701 25.3259 5.98523 25.0043 6.25641 24.7334L6.34391 24.6459C6.68011 24.3022 6.90564 23.8656 6.99142 23.3926C7.0772 22.9195 7.01929 22.4316 6.82516 21.9917C6.6403 21.5604 6.33335 21.1925 5.94209 20.9334C5.55084 20.6743 5.09235 20.5352 4.62308 20.5334H4.37516C3.60161 20.5334 2.85975 20.2261 2.31277 19.6791C1.76579 19.1321 1.4585 18.3903 1.4585 17.6167C1.4585 16.8432 1.76579 16.1013 2.31277 15.5543C2.85975 15.0073 3.60161 14.7 4.37516 14.7H4.50641C4.98911 14.6888 5.45725 14.5325 5.84997 14.2516C6.2427 13.9707 6.54183 13.5782 6.7085 13.125C6.90262 12.6852 6.96053 12.1973 6.87475 11.7242C6.78898 11.2511 6.56345 10.8146 6.22725 10.4709L6.13975 10.3834C5.86857 10.1125 5.65343 9.79082 5.50666 9.43674C5.35988 9.08266 5.28433 8.70313 5.28433 8.31983C5.28433 7.93654 5.35988 7.557 5.50666 7.20292C5.65343 6.84885 5.86857 6.52717 6.13975 6.25629C6.41063 5.98511 6.7323 5.76998 7.08638 5.6232C7.44046 5.47642 7.81999 5.40087 8.20329 5.40087C8.58658 5.40087 8.96612 5.47642 9.3202 5.6232C9.67428 5.76998 9.99595 5.98511 10.2668 6.25629L10.3543 6.34379C10.698 6.67999 11.1346 6.90552 11.6076 6.9913C12.0807 7.07708 12.5686 7.01917 13.0085 6.82504H13.1252C13.5565 6.64018 13.9244 6.33323 14.1835 5.94197C14.4426 5.55071 14.5816 5.09223 14.5835 4.62296V4.37504C14.5835 3.60149 14.8908 2.85963 15.4378 2.31265C15.9848 1.76566 16.7266 1.45837 17.5002 1.45837C18.2737 1.45837 19.0156 1.76566 19.5626 2.31265C20.1095 2.85963 20.4168 3.60149 20.4168 4.37504V4.50629C20.4187 4.97556 20.5578 5.43405 20.8169 5.8253C21.076 6.21656 21.4438 6.52351 21.8752 6.70837C22.315 6.9025 22.8029 6.96041 23.276 6.87463C23.7491 6.78885 24.1856 6.56332 24.5293 6.22712L24.6168 6.13962C24.8877 5.86844 25.2094 5.65331 25.5635 5.50653C25.9175 5.35975 26.2971 5.28421 26.6804 5.28421C27.0637 5.28421 27.4432 5.35975 27.7973 5.50653C28.1514 5.65331 28.473 5.86844 28.7439 6.13962C29.0151 6.4105 29.2302 6.73218 29.377 7.08626C29.5238 7.44033 29.5993 7.81987 29.5993 8.20317C29.5993 8.58646 29.5238 8.966 29.377 9.32008C29.2302 9.67415 29.0151 9.99583 28.7439 10.2667L28.6564 10.3542C28.3202 10.6979 28.0947 11.1344 28.0089 11.6075C27.9231 12.0806 27.981 12.5685 28.1752 13.0084V13.125C28.36 13.5564 28.667 13.9242 29.0582 14.1833C29.4495 14.4425 29.908 14.5815 30.3772 14.5834H30.6252C31.3987 14.5834 32.1406 14.8907 32.6876 15.4376C33.2345 15.9846 33.5418 16.7265 33.5418 17.5C33.5418 18.2736 33.2345 19.0155 32.6876 19.5624C32.1406 20.1094 31.3987 20.4167 30.6252 20.4167H30.4939C30.0246 20.4186 29.5662 20.5576 29.1749 20.8167C28.7836 21.0759 28.4767 21.4437 28.2918 21.875Z" stroke="#0D0D0D" stroke-width="2.5" stroke-linecap="round" stroke-linejoin="round"/>
</g>
<defs>
<clipPath id="clip0_39_430">
<rect width="35" height="35" fill="white"/>
</clipPath>
</defs>
</svg>
